
<svg width="20" height="20" viewBox="0 0 20 20" fill="none" xmlns="http://www.w3.org/2000/svg">
<path fill-rule="evenodd" clip-rule="evenodd" d="M17.6751 6.58267V13.3752C17.6751 15.8918 16.1001 17.6668 13.5834 17.6668H6.37508C3.85841 17.6668 2.29175 15.8918 2.29175 13.3752V6.58267C2.29175 4.06601 3.86675 2.29184 6.37508 2.29184H13.5834C16.1001 2.29184 17.6751 4.06601 17.6751 6.58267Z" stroke="black" stroke-width="1.25" stroke-linecap="round" stroke-linejoin="round"/>
<path d="M4.40112 13.6924L5.67446 12.3483C6.11696 11.8791 6.85446 11.8566 7.32446 12.2983C7.33862 12.3124 8.10529 13.0916 8.10529 13.0916C8.56779 13.5624 9.32362 13.5699 9.79446 13.1083C9.82529 13.0783 11.7395 10.7566 11.7395 10.7566C12.2328 10.1574 13.1186 10.0716 13.7186 10.5658C13.7586 10.5991 15.567 12.4549 15.567 12.4549" stroke="black" stroke-width="1.25" stroke-linecap="round" stroke-linejoin="round"/>
<path fill-rule="evenodd" clip-rule="evenodd" d="M8.59399 7.61093C8.59399 8.41843 7.93982 9.07259 7.13232 9.07259C6.32482 9.07259 5.67065 8.41843 5.67065 7.61093C5.67065 6.80343 6.32482 6.14926 7.13232 6.14926C7.93982 6.15009 8.59399 6.80343 8.59399 7.61093Z" stroke="black" stroke-width="1.25" stroke-linecap="round" stroke-linejoin="round"/>
</svg>
