<svg width="28" height="28" viewBox="0 0 28 28" fill="none" xmlns="http://www.w3.org/2000/svg">
<path fill-rule="evenodd" clip-rule="evenodd" d="M13.7081 5.24996C13.6019 5.24996 13.3406 5.27913 13.2017 5.5568L11.0714 9.8163C10.7342 10.4895 10.0844 10.9573 9.33305 11.0646L4.56372 11.7518C4.24872 11.7973 4.14138 12.0306 4.10872 12.1286C4.07955 12.2231 4.03288 12.4635 4.24988 12.6711L7.69855 15.9845C8.24805 16.513 8.49772 17.2748 8.36705 18.0203L7.55505 22.6986C7.50488 22.9915 7.68805 23.1618 7.76972 23.2201C7.85605 23.2855 8.08705 23.415 8.37288 23.2656L12.6371 21.0548C13.3091 20.7083 14.1094 20.7083 14.7791 21.0548L19.042 23.2645C19.329 23.4126 19.56 23.2831 19.6475 23.2201C19.7292 23.1618 19.9124 22.9915 19.8622 22.6986L19.0479 18.0203C18.9172 17.2748 19.1669 16.513 19.7164 15.9845L23.1651 12.6711C23.3832 12.4635 23.3366 12.222 23.3062 12.1286C23.2747 12.0306 23.1674 11.7973 22.8524 11.7518L18.0831 11.0646C17.3329 10.9573 16.6831 10.4895 16.3459 9.81513L14.2132 5.5568C14.0756 5.27913 13.8142 5.24996 13.7081 5.24996M8.10465 25.0833C7.62282 25.0833 7.14449 24.9317 6.73499 24.633C6.02799 24.115 5.68149 23.2598 5.83199 22.3988L6.64399 17.7205C6.67432 17.5467 6.61482 17.3705 6.48649 17.2468L3.03782 13.9335C2.40315 13.3257 2.17565 12.4273 2.44399 11.5932C2.71465 10.7497 3.43099 10.1465 4.31415 10.0205L9.08349 9.33333C9.26782 9.30767 9.42649 9.1945 9.50582 9.0335L11.6373 4.77283C12.0305 3.98767 12.8238 3.5 13.7082 3.5V3.5C14.5925 3.5 15.3858 3.98767 15.779 4.77283L17.9117 9.03233C17.9922 9.1945 18.1497 9.30767 18.3328 9.33333L23.1022 10.0205C23.9853 10.1465 24.7017 10.7497 24.9723 11.5932C25.2407 12.4273 25.012 13.3257 24.3773 13.9335L20.9287 17.2468C20.8003 17.3705 20.742 17.5467 20.7723 17.7193L21.5855 22.3988C21.7348 23.261 21.3883 24.1162 20.6802 24.633C19.9627 25.1592 19.0282 25.2303 18.236 24.8173L13.9742 22.6088C13.8073 22.5225 13.6078 22.5225 13.441 22.6088L9.17915 24.8185C8.83849 24.9958 8.47099 25.0833 8.10465 25.0833" fill="white"/>
</svg>
